<mxfile host="app.diagrams.net" modified="2024-03-09T04:15:43.923Z" agent="Mozilla/5.0 (Windows NT 10.0; Win64; x64) AppleWebKit/537.36 (KHTML, like Gecko) Chrome/122.0.0.0 Safari/537.36 Edg/122.0.0.0" etag="U86P22gSQ7zj1t1b_1Wo" version="24.0.3" type="device">
  <diagram name="Página-1" id="No7aR14QHJxKQBWV9j0A">
    <mxGraphModel dx="1242" dy="569" grid="1" gridSize="10" guides="1" tooltips="1" connect="1" arrows="1" fold="1" page="1" pageScale="1" pageWidth="827" pageHeight="1169" math="0" shadow="0">
      <root>
        <mxCell id="0" />
        <mxCell id="1" parent="0" />
        <mxCell id="8eh0dUuV4zGx1yATIl_3-3" value="" style="edgeStyle=orthogonalEdgeStyle;rounded=0;orthogonalLoop=1;jettySize=auto;html=1;" edge="1" parent="1" source="8eh0dUuV4zGx1yATIl_3-1" target="8eh0dUuV4zGx1yATIl_3-2">
          <mxGeometry relative="1" as="geometry" />
        </mxCell>
        <mxCell id="8eh0dUuV4zGx1yATIl_3-1" value="Inicio" style="ellipse;whiteSpace=wrap;html=1;fillColor=#99CCFF;" vertex="1" parent="1">
          <mxGeometry x="370" y="30" width="120" height="80" as="geometry" />
        </mxCell>
        <mxCell id="8eh0dUuV4zGx1yATIl_3-5" value="" style="edgeStyle=orthogonalEdgeStyle;rounded=0;orthogonalLoop=1;jettySize=auto;html=1;" edge="1" parent="1" source="8eh0dUuV4zGx1yATIl_3-2" target="8eh0dUuV4zGx1yATIl_3-4">
          <mxGeometry relative="1" as="geometry" />
        </mxCell>
        <mxCell id="8eh0dUuV4zGx1yATIl_3-2" value="&quot;Ingresar la lada&quot;" style="shape=parallelogram;perimeter=parallelogramPerimeter;whiteSpace=wrap;html=1;fixedSize=1;fillColor=#80FF00;" vertex="1" parent="1">
          <mxGeometry x="340" y="210" width="180" height="60" as="geometry" />
        </mxCell>
        <mxCell id="8eh0dUuV4zGx1yATIl_3-7" value="" style="edgeStyle=orthogonalEdgeStyle;rounded=0;orthogonalLoop=1;jettySize=auto;html=1;" edge="1" parent="1" source="8eh0dUuV4zGx1yATIl_3-4" target="8eh0dUuV4zGx1yATIl_3-6">
          <mxGeometry relative="1" as="geometry" />
        </mxCell>
        <mxCell id="8eh0dUuV4zGx1yATIl_3-9" value="" style="edgeStyle=orthogonalEdgeStyle;rounded=0;orthogonalLoop=1;jettySize=auto;html=1;" edge="1" parent="1" source="8eh0dUuV4zGx1yATIl_3-4" target="8eh0dUuV4zGx1yATIl_3-8">
          <mxGeometry relative="1" as="geometry" />
        </mxCell>
        <mxCell id="8eh0dUuV4zGx1yATIl_3-4" value="¿Se ingreso una lada disponible?" style="rhombus;whiteSpace=wrap;html=1;fillColor=#474D0A;" vertex="1" parent="1">
          <mxGeometry x="355" y="360" width="150" height="130" as="geometry" />
        </mxCell>
        <mxCell id="8eh0dUuV4zGx1yATIl_3-11" value="" style="edgeStyle=orthogonalEdgeStyle;rounded=0;orthogonalLoop=1;jettySize=auto;html=1;" edge="1" parent="1" source="8eh0dUuV4zGx1yATIl_3-6" target="8eh0dUuV4zGx1yATIl_3-10">
          <mxGeometry relative="1" as="geometry" />
        </mxCell>
        <mxCell id="8eh0dUuV4zGx1yATIl_3-6" value="Si" style="shape=parallelogram;perimeter=parallelogramPerimeter;whiteSpace=wrap;html=1;fixedSize=1;fillColor=#80FF00;" vertex="1" parent="1">
          <mxGeometry y="395" width="170" height="60" as="geometry" />
        </mxCell>
        <mxCell id="8eh0dUuV4zGx1yATIl_3-13" value="" style="edgeStyle=orthogonalEdgeStyle;rounded=0;orthogonalLoop=1;jettySize=auto;html=1;" edge="1" parent="1" source="8eh0dUuV4zGx1yATIl_3-8" target="8eh0dUuV4zGx1yATIl_3-12">
          <mxGeometry relative="1" as="geometry" />
        </mxCell>
        <mxCell id="8eh0dUuV4zGx1yATIl_3-8" value="No" style="shape=parallelogram;perimeter=parallelogramPerimeter;whiteSpace=wrap;html=1;fixedSize=1;fillColor=#80FF00;" vertex="1" parent="1">
          <mxGeometry x="670" y="395" width="160" height="60" as="geometry" />
        </mxCell>
        <mxCell id="8eh0dUuV4zGx1yATIl_3-15" value="" style="edgeStyle=orthogonalEdgeStyle;rounded=0;orthogonalLoop=1;jettySize=auto;html=1;entryX=0;entryY=0.5;entryDx=0;entryDy=0;" edge="1" parent="1" source="8eh0dUuV4zGx1yATIl_3-10" target="8eh0dUuV4zGx1yATIl_3-16">
          <mxGeometry relative="1" as="geometry">
            <mxPoint x="295" y="660" as="targetPoint" />
          </mxGeometry>
        </mxCell>
        <mxCell id="8eh0dUuV4zGx1yATIl_3-10" value="Mostrar en pantalla la lada correspondiente" style="shape=parallelogram;perimeter=parallelogramPerimeter;whiteSpace=wrap;html=1;fixedSize=1;fillColor=#80FF00;" vertex="1" parent="1">
          <mxGeometry y="630" width="170" height="60" as="geometry" />
        </mxCell>
        <mxCell id="8eh0dUuV4zGx1yATIl_3-17" value="" style="edgeStyle=orthogonalEdgeStyle;rounded=0;orthogonalLoop=1;jettySize=auto;html=1;" edge="1" parent="1" source="8eh0dUuV4zGx1yATIl_3-12" target="8eh0dUuV4zGx1yATIl_3-16">
          <mxGeometry relative="1" as="geometry" />
        </mxCell>
        <mxCell id="8eh0dUuV4zGx1yATIl_3-12" value="Mostrar en pantalla un mensaje que diga: No se conoce la lada" style="shape=parallelogram;perimeter=parallelogramPerimeter;whiteSpace=wrap;html=1;fixedSize=1;fillColor=#80FF00;" vertex="1" parent="1">
          <mxGeometry x="653.5" y="630" width="193" height="60" as="geometry" />
        </mxCell>
        <mxCell id="8eh0dUuV4zGx1yATIl_3-16" value="FIN" style="ellipse;whiteSpace=wrap;html=1;fillColor=#99CCFF;" vertex="1" parent="1">
          <mxGeometry x="390" y="620" width="80" height="80" as="geometry" />
        </mxCell>
      </root>
    </mxGraphModel>
  </diagram>
</mxfile>
